<?xml version="1.0" encoding="utf-8"?>
<!-- Generator: Adobe Illustrator 19.1.1, SVG Export Plug-In . SVG Version: 6.00 Build 0)  -->
<svg version="1.1" id="Capa_1" xmlns="http://www.w3.org/2000/svg" xmlns:xlink="http://www.w3.org/1999/xlink" x="0px" y="0px"
	 viewBox="-47 170.9 40.1 41.9" style="enable-background:new -47 170.9 40.1 41.9;" xml:space="preserve">
<style type="text/css">
	.st0{fill:#FFFFFF;}
	.st1{opacity:0.9;fill:#FFFFFF;}
	.st2{opacity:0.8;fill:#FFFFFF;}
	.st3{opacity:0.7;fill:#FFFFFF;}
	.st4{opacity:0.6;fill:#FFFFFF;}
	.st5{opacity:0.5;fill:#FFFFFF;}
	.st6{opacity:0.4;fill:#FFFFFF;}
	.st7{opacity:0.3;fill:#FFFFFF;}
	.st8{opacity:0.2;fill:#FFFFFF;}
	.st9{opacity:0.1;fill:#FFFFFF;}
</style>
<g>
	<path class="st0" d="M-27,170.9c1.2,0,2,0.8,2,2v7.9c0,1.2-0.8,2.1-2,2.1s-2.1-0.9-2.1-2.1v-7.9C-29.1,171.7-28.1,170.9-27,170.9z"
		/>
	<path class="st1" d="M-36.4,175.3l4.6,6.4c1,1.3,0,3.3-1.7,3.3c-0.7,0-1.2-0.3-1.6-0.8l-4.6-6.4c-0.7-0.9-0.5-2.2,0.4-2.8
		C-38.4,174.2-37.1,174.4-36.4,175.3z"/>
	<path class="st2" d="M-45.6,188c-1.1-0.3-1.7-1.5-1.3-2.6c0.3-1.1,1.5-1.7,2.6-1.3l7.5,2.4c1.1,0.3,1.7,1.5,1.3,2.6
		c-0.3,0.8-1.2,1.4-2,1.4c-0.3,0-0.3-0.1-0.6-0.2L-45.6,188z"/>
	<path class="st3" d="M-35.5,194.6c0.3,1.1-0.3,2.3-1.3,2.6l-7.5,2.4c-0.3,0.1-0.4,0.1-0.7,0.1c-0.8,0-1.7-0.6-1.9-1.4
		c-0.3-1.1,0.3-2.3,1.3-2.6l7.5-2.4C-37,192.9-35.8,193.5-35.5,194.6z"/>
	<path class="st4" d="M-32.2,199.1c0.9,0.7,1.1,1.9,0.4,2.8l-4.6,6.4c-0.4,0.6-1,0.8-1.7,0.8c-1.7,0-2.6-1.9-1.6-3.3l4.6-6.4
		C-34.4,198.6-33.2,198.5-32.2,199.1z"/>
	<path class="st5" d="M-27,200.8c1.2,0,2,0.9,2,2.1v7.8c0,1.2-0.8,2.1-2,2.1s-2.1-0.9-2.1-2.1v-7.8C-29.1,201.7-28.1,200.8-27,200.8
		z"/>
	<path class="st6" d="M-18.8,199.5l4.6,6.4c1,1.3,0,3.3-1.7,3.3c-0.7,0-1.2-0.3-1.6-0.8l-4.6-6.4c-0.7-0.9-0.5-2.2,0.4-2.8
		C-20.8,198.5-19.5,198.6-18.8,199.5z"/>
	<path class="st7" d="M-8.4,195.7c1.1,0.3,1.7,1.5,1.3,2.6c-0.3,0.8-1.2,1.4-2,1.4c-0.3,0-0.3,0-0.6-0.1l-7.5-2.4
		c-1.1-0.3-1.7-1.5-1.3-2.6c0.3-1.1,1.5-1.7,2.6-1.3L-8.4,195.7z"/>
	<path class="st8" d="M-18.4,189.1c-0.3-1.1,0.3-2.3,1.3-2.6l7.5-2.4c1.1-0.3,2.3,0.3,2.6,1.3c0.3,1.1-0.3,2.3-1.3,2.6l-7.5,2.3
		c-0.3,0.1-0.4,0.2-0.7,0.2C-17.3,190.5-18.2,189.9-18.4,189.1z"/>
	<path class="st9" d="M-20.5,185c-1.7,0-2.6-1.9-1.6-3.3l4.6-6.4c0.7-0.9,1.9-1.1,2.8-0.4c0.9,0.7,1.1,1.9,0.4,2.8l-4.6,6.4
		C-19.3,184.7-19.8,185-20.5,185z"/>
</g>
</svg>
