<?xml version="1.0" encoding="utf-8"?>
<!-- Generator: Adobe Illustrator 16.0.0, SVG Export Plug-In . SVG Version: 6.00 Build 0)  -->
<!DOCTYPE svg PUBLIC "-//W3C//DTD SVG 1.1//EN" "http://www.w3.org/Graphics/SVG/1.1/DTD/svg11.dtd">
<svg version="1.1" id="Layer_1" xmlns="http://www.w3.org/2000/svg" xmlns:xlink="http://www.w3.org/1999/xlink" x="0px" y="0px"
	 width="30px" height="30px" viewBox="0 0 30 30" enable-background="new 0 0 30 30" xml:space="preserve">
<g>
	<g>
		<path fill="#FFFFFF" d="M24.8,10.9c-0.8-2.4-2.3-4.4-4.2-6c-1.4-1.1-2.9-1.8-4.5-2.3c-1.6-0.4-3.2-0.5-4.9-0.3
			C9.5,2.6,8,3.1,6.5,3.9C5,4.7,3.8,5.8,2.7,7.2c-1.1,1.3-1.8,2.9-2.3,4.5c-0.4,1.6-0.5,3.2-0.3,4.9c0.2,1.6,0.7,3.2,1.5,4.6
			C2.4,22.7,3.6,24,4.9,25c1.2,0.9,2.4,1.6,3.8,2c1.3,0.4,2.7,0.7,4.1,0.6c1.4,0,2.8-0.3,4.1-0.7c1.3-0.5,2.6-1.1,3.7-2l-3.1-3.9
			c-1.3,1.1-3,1.7-4.8,1.7c-1.8,0-3.5-0.5-4.9-1.6C6.3,19.9,5.3,18,5,16c-0.3-2.1,0.3-4.1,1.6-5.7c1.3-1.6,3.1-2.7,5.2-2.9
			c2.1-0.3,4.1,0.3,5.8,1.6c1.2,0.9,2.1,2.2,2.6,3.6c0.1,0.3,0.2,0.7,0.3,1l-4.6,0l6.9,9.4l7.3-9.3l-4.6,0
			C25.3,12.7,25.1,11.8,24.8,10.9z"/>
	</g>
</g>
</svg>
